<svg width="512" height="512" viewBox="0 0 512 512" fill="none" xmlns="http://www.w3.org/2000/svg">
<path d="M45.2975 134.351L256 12.7017L466.703 134.351V377.649L256 499.298L45.2975 377.649V134.351Z" stroke="#d2d2d2" stroke-width="22"/>
<path fill-rule="evenodd" clip-rule="evenodd" d="M352 288V152L344 144H187.84C184.17 144.041 180.539 144.745 177.12 146.08C173.674 147.611 170.569 149.815 167.986 152.563C165.403 155.31 163.395 158.546 162.08 162.08C160.771 165.227 160.066 168.592 160 172V324C159.962 327.677 160.669 331.324 162.08 334.72C164.914 341.557 170.313 347.013 177.12 349.92C180.539 351.255 184.17 351.959 187.84 352H192V336H187.84C186.244 336.005 184.663 335.678 183.2 335.04C180.303 333.838 178.002 331.537 176.8 328.64C176.289 327.146 176.019 325.579 176 324V316C176.019 314.421 176.289 312.854 176.8 311.36C178.002 308.463 180.303 306.162 183.2 304.96C184.642 304.332 186.196 304.005 187.768 304H187.84H192H336V336H272V352H344L352 344V304V288ZM192 288V160H336V288H192ZM208 176H224V192H208V176ZM208 208H224V224H208V208ZM224 240H208V256H224V240ZM232 343.84L212.48 368H208V320H256V368H251.52L232 343.84Z" fill="#d2d2d2"/>
</svg>
